<svg xmlns="http://www.w3.org/2000/svg" width="432" height="432" viewBox="0 0 432 432">
  <g transform="translate(216 216) scale(0.64) translate(-256 -256)">
    <path d="M142 110h126c82 0 132 43 132 112 0 52-29 89-79 105l84 115h-82l-74-105h-39v105h-68V110zm68 62v105h55c42 0 65-18 65-53 0-35-23-52-65-52h-55z" fill="#F2EFE8"/>
    <path d="M196 374L338 232" fill="none" stroke="#C99A4B" stroke-width="24" stroke-linecap="round"/>
    <rect x="350" y="86" width="58" height="58" rx="16" fill="#7A405F"/>
    <path d="M365 115h28M379 101v28" stroke="#F2EFE8" stroke-width="8" stroke-linecap="round"/>
  </g>
</svg>