<svg xmlns="http://www.w3.org/2000/svg" width="256" height="864" viewBox="0 0 256 864"><rect width="256" height="864" fill="#101a20"/><g fill="#293c45" stroke="#d5e2e1" stroke-width="4"><path d="M18 136V48L128 12l110 36v88z"/><path d="M12 280v-112l116-34 116 34v112z"/><path d="M8 428V296l120-38 120 38v132z"/><path d="M6 578V444l122-40 122 40v134z"/><path d="M4 730V594l124-42 124 42v136z"/><path d="M2 862V746l126-42 126 42v116z"/></g><g fill="none" stroke="#8fc7b5" stroke-width="6"><path d="M42 106h42v30H42zM172 76h42v30h-42z"/><path d="M38 228h44v34H38zM174 194h44v34h-44z"/><path d="M34 360h48v38H34zM174 322h48v38h-48z"/><path d="M30 510h52v40H30zM174 468h52v40h-52z"/><path d="M26 660h56v42H26zM172 616h56v42h-56z"/><path d="M22 808h58v44H22zM170 762h58v44h-58z"/></g></svg>